<?xml version="1.0" encoding="utf-8"?>
<!-- Generator: Adobe Illustrator 19.0.0, SVG Export Plug-In . SVG Version: 6.00 Build 0)  -->
<svg version="1.1" id="Layer_1" xmlns="http://www.w3.org/2000/svg" xmlns:xlink="http://www.w3.org/1999/xlink" x="0px" y="0px"
	 viewBox="0 0 500 500" style="enable-background:new 0 0 500 500;" xml:space="preserve">
<style type="text/css">
	.st0{fill:#DA251D;}
	.st1{fill:#FFFF00;}
</style>
<g id="XMLID_27_">
	<rect id="XMLID_29_" x="67.5" y="113.1" class="st0" width="365" height="273.8"/>
	<polyline id="XMLID_33_" class="st1" points="250,195.3 233.1,247.3 267.8,258.6 	"/>
	<polyline id="XMLID_34_" class="st1" points="250,195.3 266.9,247.3 232.2,258.6 	"/>
	<polyline id="XMLID_35_" class="st1" points="302.1,233.1 247.3,233.1 247.3,269.6 	"/>
	<polyline id="XMLID_36_" class="st1" points="302.1,233.1 257.8,265.3 236.3,235.7 	"/>
	<polyline id="XMLID_37_" class="st1" points="282.2,294.3 265.3,242.2 230.5,253.5 	"/>
	<polyline id="XMLID_38_" class="st1" points="282.2,294.3 237.9,262.1 259.3,232.6 	"/>
	<polyline id="XMLID_39_" class="st1" points="197.9,233.1 252.7,233.1 252.7,269.6 	"/>
	<polyline id="XMLID_40_" class="st1" points="197.9,233.1 242.2,265.3 263.7,235.7 	"/>
	<polyline id="XMLID_41_" class="st1" points="217.8,294.3 234.7,242.2 269.5,253.5 	"/>
	<polyline id="XMLID_42_" class="st1" points="217.8,294.3 262.1,262.1 240.7,232.6 	"/>
</g>
</svg>
